<svg width="50" height="50" xmlns="http://www.w3.org/2000/svg">

 <g>
  <title>Layer 1</title>
  <line stroke-linecap="undefined" stroke-linejoin="undefined" id="svg_1" y2="419" x2="138" y1="160" x1="216" stroke="#000" fill="none"/>
  <path d="m17.78631,7.37146c-0.36068,0 -1.35578,-0.1978 -3.15599,-0.09017c-2.26641,0.1355 -4.56688,0.95067 -7.12352,2.16411c-2.40553,1.14172 -4.35991,2.44846 -5.04959,4.0577c-0.68968,1.60925 -0.40424,3.56919 0.81154,5.22993c1.54466,2.10999 4.17805,3.58169 7.39404,4.23805c3.5615,0.72687 7.07492,0.63891 10.55003,-0.81154c3.128,-1.30557 5.79498,-3.33667 6.5825,-6.67267c0.8494,-3.59812 -0.99414,-7.27312 -4.14787,-9.10729c-2.91026,-1.69256 -6.40215,-1.44274 -9.10729,-0.99188l-0.90171,0.45086" id="svg_16" stroke="#000" fill="none"/>
  <path d="m40.41928,7.5518c-0.18034,0.09017 -1.73556,0.63925 -3.60685,1.98377c-2.12869,1.52946 -4.16165,3.47183 -4.77908,5.77096c-0.49334,1.83707 0.72272,3.65781 2.34445,4.14787c2.35598,0.71194 5.26528,0.7063 7.66455,-0.36068c2.33183,-1.037 4.23458,-3.24832 4.6889,-5.86113c0.46368,-2.66663 -0.60189,-5.76754 -2.79531,-7.30387c-2.44508,-1.7126 -6.22181,-1.71325 -8.92695,-1.62308l-1.98377,0.99188l-0.09017,0.09017" id="svg_17" stroke="#000" fill="none"/>
  <path d="m13.81877,24.1433c-0.09017,0 -0.01968,0.72894 -0.18034,1.89359c-0.1885,1.36641 -0.53777,2.69366 -0.72137,4.41839c-0.17207,1.61645 -0.18034,2.97565 -0.27051,3.87736l0,0.72137l0,0.18034l0,0.18034" id="svg_18" stroke="#000" fill="none"/>
  <path d="m4.53114,30.00443c0,-0.27051 0.28491,-0.80758 0.99188,-1.35257c0.99212,-0.76482 2.43251,-1.12712 3.87736,-1.17222c1.44204,-0.04502 2.63738,0.22823 3.51668,0.72137c0.74195,0.41611 1.35257,0.72137 1.80342,1.08205c0.45086,0.36069 1.08433,0.71067 1.53291,0.81154c0.36273,0.08157 0.72959,0.1086 1.35257,-0.18034c0.91457,-0.42418 1.71325,-0.90171 2.52479,-1.35257l0.45086,-0.09017l0.09017,0" id="svg_19" stroke="#000" fill="none"/>
  <path d="m12.19569,34.96384c-0.18034,0.18034 -0.249,0.46365 -0.6312,1.08205c-0.51277,0.82969 -1.39658,1.57693 -2.34445,2.5248c-0.94787,0.94787 -1.98377,2.34445 -3.06582,3.78719l-0.99188,1.35257l-0.54103,0.54103l-0.09017,0.18034" id="svg_20" stroke="#000" fill="none"/>
  <path d="m12.46621,35.59504c0.09017,0 0.12803,0.07221 0.54103,0.99188c0.59677,1.32891 1.45527,3.14891 2.16411,4.41839c0.55082,0.98648 1.08206,1.62308 1.35257,2.07394l0.09017,0.27051l0.09017,0" id="svg_21" stroke="#000" fill="none"/>
  <path d="m38.70602,20.26594c0,0.09017 0,0.72137 0,2.07394c0,1.80342 -0.16447,3.78794 -0.27051,5.86113c-0.07844,1.53356 -0.27052,2.97565 -0.27052,3.78719l0,0.27051" id="svg_22" stroke="#000" fill="none"/>
  <path d="m30.13976,23.06125c0.36069,0.18034 0.96219,0.69625 1.89359,1.08206c0.79033,0.32736 1.84258,1.02983 3.06582,1.44274c0.78767,0.26588 1.27612,0.38184 1.44274,0.45086c0.11781,0.0488 0.37415,0.13294 0.45086,0.18034c0.17152,0.106 0.20675,0.20675 0.27052,0.27051c0.06376,0.06376 0.20675,0.02641 0.27051,0.09017c0.06376,0.06376 0.18034,0.09017 0.27052,0.27051l0.09017,0" id="svg_23" stroke="#000" fill="none"/>
  <path d="m38.7962,26.39758c0,-0.09017 0.37539,-0.07794 1.35257,-0.27051c1.20331,-0.23714 2.69252,-0.63809 4.0577,-1.35257c1.2632,-0.6611 2.07394,-1.35257 2.5248,-1.80342l0.18034,-0.27051l0.09017,-0.09017" id="svg_24" stroke="#000" fill="none"/>
  <path stroke="#000" d="m38.34534,31.71768c-0.09422,0 -0.12732,0.05621 -0.47112,0.38668c-0.63394,0.60936 -1.52518,1.82335 -2.63827,3.38345c-1.43626,2.01308 -2.82671,3.8668 -3.86318,5.31685l-0.94224,1.16004l-0.47112,0.48335" id="svg_25" fill="none"/>
  <path d="m43.84578,43.25959c0,-0.18034 0.00341,-0.27203 -0.36068,-1.08205c-0.44669,-0.99377 -0.90171,-1.98376 -1.35257,-3.24616c-0.45086,-1.26239 -0.76086,-2.18089 -1.08205,-3.06582c-0.2343,-0.64552 -0.43743,-1.03564 -0.6312,-1.44274c-0.15978,-0.3357 -0.24474,-0.65028 -0.45086,-0.90171c-0.1617,-0.19724 -0.27051,-0.54103 -0.54103,-0.81154c-0.09017,-0.09017 -0.13154,-0.15269 -0.18034,-0.27051c-0.06902,-0.16661 -0.11658,-0.20675 -0.18034,-0.27052c-0.06376,-0.06376 -0.18034,0 -0.27051,0l0,-0.09017" id="svg_26" stroke="#000" fill="none"/>
  <path d="m18.86836,47.49764c0,-0.09017 0.13495,-0.47277 0.6312,-1.44274c0.66222,-1.2944 1.27633,-2.58328 1.98377,-3.4265c0.16393,-0.19538 0.27051,-0.18034 0.45086,-0.18034c0.09017,0 0.18034,0 0.27051,0c0.27052,0 0.45086,0.27051 0.81154,0.6312c0.45086,0.45086 1.00971,1.1628 1.62308,2.34445c0.55735,1.07373 0.90171,1.89359 1.08205,2.34445l0.09017,0.09017l-0.09017,0" id="svg_27" stroke="#000" fill="none"/>
  <path d="m22.83589,32.6194c0,0.09017 0,0.36068 0,0.72137c0,0.45086 -0.09017,1.17223 -0.18034,2.07394c-0.09017,0.90171 -0.27051,1.62308 -0.27051,2.34445c0,0.6312 0,0.99189 0,1.08205c0,0.27052 0,0.45086 0,0.72137c0,0.36068 -0.09017,0.6312 -0.09017,0.90171c0,0.36069 0,0.54103 0,0.6312c0,0.18034 0,0.27052 0,0.36069c0,0.09017 0,0.27051 0,0.36068l0,0.36068l0,0.09017" id="svg_28" stroke="#000" fill="none"/>
  <path d="m18.50768,37.21812c0,-0.09017 -0.02851,-0.18497 0,-0.27051c0.14257,-0.42772 0.481,-0.73007 1.17223,-1.08205c0.5082,-0.25879 1.17222,-0.27052 1.89359,-0.27052c0.81154,0 1.53291,0 2.25428,0c0.54103,0 1.10496,-0.16849 1.71325,0c0.50671,0.14035 0.63361,0.33997 0.72137,0.36069c0.19623,0.04632 0.27051,0.09017 0.36069,0.09017c0.09017,0 0.27825,0.05226 0.45086,0c0.31116,-0.09421 0.27051,-0.27051 0.36069,-0.36068l0,-0.09017l0.09017,0" id="svg_29" stroke="#000" fill="none"/>
  <path d="m24.81966,26.84844c-0.18034,0 -0.36441,-0.01377 -0.72137,0.09017c-0.54755,0.15945 -1.03839,0.85114 -1.53291,1.35257c-0.58375,0.59191 -1.08205,0.99188 -1.35257,1.44274c-0.27051,0.45086 -0.40566,0.98708 -0.45086,1.62308c-0.04474,0.62961 -0.0975,1.20334 0.09017,1.62308c0.18402,0.41159 0.77502,0.83126 1.71325,1.08205c1.23196,0.32931 2.34717,0.34722 3.42651,0.27052c0.636,-0.0452 1.30466,-0.67987 1.44274,-1.35257c0.1813,-0.8833 0.04384,-1.74041 -0.36069,-2.34445c-0.57208,-0.85424 -1.35257,-1.53291 -2.25428,-1.80342l-0.72137,-0.18034l-0.36069,0l-0.18034,0" id="svg_30" stroke="#000" fill="none"/>
 </g>
</svg>